<svg width="257" height="257" viewBox="0 0 257 257" fill="none" xmlns="http://www.w3.org/2000/svg">
<rect width="256" height="256" transform="translate(0.5 0.666687)" fill="#302D30"/>
<path d="M144.498 112.667H112.498C110.292 112.667 108.498 114.461 108.498 116.667V140.667C108.498 142.873 110.292 144.667 112.498 144.667H144.498C146.704 144.667 148.498 142.873 148.498 140.667V116.667C148.498 114.461 146.704 112.667 144.498 112.667ZM117.498 118.667C118.294 118.667 119.057 118.983 119.619 119.545C120.182 120.108 120.498 120.871 120.498 121.667C120.498 122.462 120.182 123.225 119.619 123.788C119.057 124.351 118.294 124.667 117.498 124.667C116.702 124.667 115.939 124.351 115.377 123.788C114.814 123.225 114.498 122.462 114.498 121.667C114.498 120.871 114.814 120.108 115.377 119.545C115.939 118.983 116.702 118.667 117.498 118.667ZM128.498 138.667H114.498L122.498 128.667L125.498 132.667L131.498 124.667L142.498 138.667H128.498Z" fill="#CBCBCB"/>
</svg>
