<svg width="335" height="117" viewBox="0 0 335 117" fill="none" xmlns="http://www.w3.org/2000/svg">
<path d="M42.84 85.2C42.28 87.04 42.04 88.76 42.12 90.36C42.28 91.88 43.24 92.64 45 92.64C46.6 92.64 48.08 91.76 49.44 90C50.8 88.16 52.24 84.96 53.76 80.4L55.2 75.96H57.48L54.72 84.72C53.76 87.92 52.48 90.44 50.88 92.28C49.28 94.04 47.6 95.28 45.84 96C44.08 96.72 42.4 97.08 40.8 97.08C36 97.08 33.48 94.8 33.24 90.24C33.16 88.96 33.24 87.48 33.48 85.8C33.8 84.12 34.24 82.28 34.8 80.28L52.08 15.36C52.8 12.64 52.68 10.64 51.72 9.36C50.76 8.08 48.32 7.44 44.4 7.44L45.12 4.92C49.52 4.84 53.4 4.4 56.76 3.6C60.12 2.72 63.32 1.52 66.36 0L42.84 85.2ZM15.96 93.24C17.96 93.24 20.2 92.08 22.68 89.76C25.24 87.36 27.8 84.16 30.36 80.16C33 76.08 35.4 71.48 37.56 66.36C39.8 61.16 41.56 55.8 42.84 50.28L41.04 63.24C37.92 71.48 34.8 78.08 31.68 83.04C28.64 88 25.52 91.6 22.32 93.84C19.2 96 15.92 97.08 12.48 97.08C10 97.08 7.8 96.52 5.88 95.4C4.04 94.2 2.6 92.44 1.56 90.12C0.52 87.8 0 84.84 0 81.24C0 77.4 0.6 73.28 1.8 68.88C3.08 64.4 4.88 60 7.2 55.68C9.52 51.36 12.28 47.44 15.48 43.92C18.76 40.32 22.36 37.44 26.28 35.28C30.2 33.12 34.36 32.04 38.76 32.04C40.6 32.04 42.32 32.76 43.92 34.2C45.52 35.56 46.4 37.64 46.56 40.44L45.6 42.84C45.28 39.96 44.48 37.92 43.2 36.72C41.92 35.44 40.48 34.8 38.88 34.8C35.84 34.8 32.88 35.84 30 37.92C27.2 40 24.64 42.76 22.32 46.2C20 49.64 17.96 53.48 16.2 57.72C14.44 61.88 13.08 66.16 12.12 70.56C11.16 74.88 10.68 78.96 10.68 82.8C10.68 86.32 11.12 88.96 12 90.72C12.88 92.4 14.2 93.24 15.96 93.24Z" fill="#D37F59"/>
<path d="M72.2391 95.4H61.7991L76.1991 43.92C76.9991 41.2 77.2391 39.28 76.9191 38.16C76.6791 37.04 75.8791 36.48 74.5191 36.48C72.7591 36.48 71.1591 37.4 69.7191 39.24C68.2791 41.08 66.7591 44.24 65.1591 48.72L57.48 75.96H55.2L64.3191 44.4C65.5191 41.04 66.9191 38.48 68.5191 36.72C70.1991 34.96 71.9191 33.76 73.6791 33.12C75.5191 32.4 77.2391 32.04 78.8391 32.04C81.2391 32.04 82.9191 32.56 83.8791 33.6C84.9191 34.64 85.4791 36 85.5591 37.68C85.7191 39.36 85.5991 41.2 85.1991 43.2C84.8791 45.12 84.4791 47 83.9991 48.84L72.2391 95.4ZM103.079 35.04C101.239 35.04 99.3191 35.92 97.3191 37.68C95.3991 39.36 93.3991 41.84 91.3191 45.12C89.3191 48.32 87.2791 52.2 85.1991 56.76C83.1991 61.24 81.1991 66.24 79.1991 71.76C77.2791 77.28 75.3991 83.24 73.5591 89.64L76.5591 74.28C79.1991 66.44 81.6391 59.84 83.8791 54.48C86.1991 49.12 88.4791 44.8 90.7191 41.52C92.9591 38.16 95.2391 35.76 97.5591 34.32C99.9591 32.8 102.479 32.04 105.119 32.04C107.359 32.04 109.079 32.68 110.279 33.96C111.559 35.24 112.199 36.88 112.199 38.88C112.199 40.48 111.799 41.96 110.999 43.32C110.199 44.6 109.159 45.64 107.879 46.44C106.679 47.16 105.319 47.52 103.799 47.52C102.439 47.52 101.279 47.16 100.319 46.44C99.4391 45.64 98.9991 44.56 98.9991 43.2C98.9991 41.92 99.2391 40.8 99.7191 39.84C100.199 38.8 100.839 37.92 101.639 37.2C102.439 36.48 103.359 35.92 104.399 35.52C104.239 35.36 104.039 35.24 103.799 35.16C103.639 35.08 103.399 35.04 103.079 35.04Z" fill="#D37F59"/>
<path d="M106.34 68.16C110.82 66.64 114.86 65.16 118.46 63.72C122.14 62.2 125.06 60.6 127.22 58.92C130.1 56.6 132.38 53.8 134.06 50.52C135.74 47.24 136.58 43.64 136.58 39.72C136.58 37.4 136.42 35.92 136.1 35.28C135.78 34.64 135.3 34.32 134.66 34.32C132.66 34.32 130.5 35.2 128.18 36.96C125.86 38.72 123.58 41.16 121.34 44.28C119.1 47.32 117.02 50.8 115.1 54.72C113.26 58.64 111.78 62.84 110.66 67.32C109.54 71.72 108.98 76.12 108.98 80.52C108.98 84.6 109.74 87.56 111.26 89.4C112.78 91.16 114.78 92.04 117.26 92.04C120.14 92.04 124.48 91.16 127.68 89.4C130.88 87.64 134.33 85.38 137.37 80.9L139.18 81.7661C137.66 84.4061 136.66 85.6461 134.18 88.1261C131.7 90.6061 126.8 93.56 123.68 95.16C120.64 96.68 116.98 97.08 113.54 97.08C110.34 97.08 107.54 96.44 105.14 95.16C102.74 93.88 100.9 92 99.6201 89.52C98.3401 86.96 97.7001 83.84 97.7001 80.16C97.7001 76.72 98.3401 72.88 99.6201 68.64C100.9 64.32 102.7 60.04 105.02 55.8C107.42 51.48 110.26 47.52 113.54 43.92C116.82 40.32 120.46 37.44 124.46 35.28C128.46 33.12 132.74 32.04 137.3 32.04C139.78 32.04 141.86 32.72 143.54 34.08C145.3 35.36 146.18 37.32 146.18 39.96C146.18 43.16 145.22 46.16 143.3 48.96C141.46 51.68 138.98 54.2 135.86 56.52C132.82 58.76 129.5 60.76 125.9 62.52C122.3 64.28 118.78 65.8 115.34 67.08C111.9 68.36 108.86 69.4 106.22 70.2L106.34 68.16Z" fill="#D37F59"/>
<path d="M148.8 93.6461C149.44 93.9661 150.12 94.2461 150.84 94.4861C151.64 94.6461 152.8 94.7261 154.32 94.7261C157.84 94.7261 160.72 93.6861 162.96 91.6061C165.28 89.4461 166.44 86.3661 166.44 82.3661C166.44 79.8861 165.96 77.4461 165 75.0461C164.12 72.5661 162.52 69.7261 160.2 66.5261C158.36 63.9661 156.6 61.3661 154.92 58.7261C153.24 56.0061 152.4 52.8061 152.4 49.1261C152.4 45.6861 153.24 42.7261 154.92 40.2461C156.6 37.6861 158.84 35.6861 161.64 34.2461C164.52 32.8061 167.64 32.0861 171 32.0861C173.32 32.0861 175.6 32.3661 177.84 32.9261C180.08 33.4861 181.92 34.5261 183.36 36.0461C184.88 37.4861 185.64 39.6461 185.64 42.5261C185.64 43.2461 185.44 44.1261 185.04 45.1661C184.72 46.1261 184.16 46.9661 183.36 47.6861C182.56 48.4061 181.48 48.7661 180.12 48.7661C178.84 48.7661 177.72 48.3261 176.76 47.4461C175.8 46.4861 175.32 45.2461 175.32 43.7261C175.32 42.2861 175.6 40.9261 176.16 39.6461C176.8 38.2861 177.64 36.9661 178.68 35.6861C177.16 34.7261 175.16 34.2461 172.68 34.2461C169.72 34.2461 167.24 35.2461 165.24 37.2461C163.24 39.2461 162.24 42.0461 162.24 45.6461C162.24 47.4861 162.52 49.1261 163.08 50.5661C163.64 51.9261 164.44 53.3661 165.48 54.8861C166.6 56.4061 167.92 58.3261 169.44 60.6461C171.44 63.6861 173.12 66.6061 174.48 69.4061C175.84 72.2061 176.52 75.1661 176.52 78.2861C176.52 81.9661 175.56 85.2461 173.64 88.1261C171.8 90.9261 169.32 93.1261 166.2 94.7261C163.08 96.3261 159.64 97.1261 155.88 97.1261C153.16 97.1261 150.56 96.7261 148.08 95.9261C145.6 95.1261 143.56 93.8861 141.96 92.2061C140.44 90.4461 139.68 88.1261 139.68 85.2461C139.68 84.1261 140.04 82.9661 140.76 81.7661C141.4 80.4861 142.6 79.8461 144.36 79.8461C146.28 79.8461 147.64 80.6461 148.44 82.2461C149.24 83.7661 149.64 85.4861 149.64 87.4061C149.64 88.6861 149.52 89.8461 149.28 90.8861C149.12 91.8461 148.96 92.7661 148.8 93.6461Z" fill="#D37F59"/>
<path d="M187.34 93.6C187.98 93.92 188.66 94.2 189.38 94.44C190.18 94.6 191.34 94.68 192.86 94.68C196.38 94.68 199.26 93.64 201.5 91.56C203.82 89.4 204.98 86.32 204.98 82.32C204.98 79.84 204.5 77.4 203.54 75C202.66 72.52 201.06 69.68 198.74 66.48C196.9 63.92 195.14 61.32 193.46 58.68C191.78 55.96 190.94 52.76 190.94 49.08C190.94 45.64 191.78 42.68 193.46 40.2C195.14 37.64 197.38 35.64 200.18 34.2C203.06 32.76 206.18 32.04 209.54 32.04C211.86 32.04 214.14 32.32 216.38 32.88C218.62 33.44 220.46 34.48 221.9 36C223.42 37.44 224.18 39.6 224.18 42.48C224.18 43.2 223.98 44.08 223.58 45.12C223.26 46.08 222.7 46.92 221.9 47.64C221.1 48.36 220.02 48.72 218.66 48.72C217.38 48.72 216.26 48.28 215.3 47.4C214.34 46.44 213.86 45.2 213.86 43.68C213.86 42.24 214.14 40.88 214.7 39.6C215.34 38.24 216.18 36.92 217.22 35.64C215.7 34.68 213.7 34.2 211.22 34.2C208.26 34.2 205.78 35.2 203.78 37.2C201.78 39.2 200.78 42 200.78 45.6C200.78 47.44 201.06 49.08 201.62 50.52C202.18 51.88 202.98 53.32 204.02 54.84C205.14 56.36 206.46 58.28 207.98 60.6C209.98 63.64 211.66 66.56 213.02 69.36C214.38 72.16 215.06 75.12 215.06 78.24C215.06 81.92 214.1 85.2 212.18 88.08C210.34 90.88 207.86 93.08 204.74 94.68C201.62 96.28 198.18 97.08 194.42 97.08C191.7 97.08 189.1 96.68 186.62 95.88C184.14 95.08 182.1 93.84 180.5 92.16C178.98 90.4 178.22 88.08 178.22 85.2C178.22 84.08 178.58 82.92 179.3 81.72C179.94 80.44 181.14 79.8 182.9 79.8C184.82 79.8 186.18 80.6 186.98 82.2C187.78 83.72 188.18 85.44 188.18 87.36C188.18 88.64 188.06 89.8 187.82 90.84C187.66 91.8 187.5 92.72 187.34 93.6Z" fill="#D37F59"/>
<path d="M242.92 11.88C243.32 9.8 244.36 7.99999 246.04 6.48C247.8 4.96 249.68 4.2 251.68 4.2C253.76 4.2 255.36 4.96 256.48 6.48C257.68 7.99999 258.08 9.8 257.68 11.88C257.28 13.96 256.2 15.76 254.44 17.28C252.76 18.8 250.88 19.56 248.8 19.56C246.8 19.56 245.2 18.8 244 17.28C242.88 15.76 242.52 13.96 242.92 11.88ZM239.2 43.92C240.88 38.96 240.32 36.48 237.52 36.48C235.68 36.48 234.04 37.48 232.6 39.48C231.16 41.48 229.64 44.56 228.04 48.72L226.36 53.16H224.08L227.2 44.4C228.4 41.04 229.84 38.48 231.52 36.72C233.2 34.96 234.96 33.76 236.8 33.12C238.72 32.4 240.48 32.04 242.08 32.04C244.64 32.04 246.52 32.56 247.72 33.6C248.92 34.64 249.64 36 249.88 37.68C250.12 39.36 250.04 41.2 249.64 43.2C249.24 45.12 248.72 47 248.08 48.84L235.24 85.2C234.44 87.52 234.16 89.36 234.4 90.72C234.72 92 235.64 92.64 237.16 92.64C238.76 92.64 240.28 91.76 241.72 90C243.16 88.24 244.76 85.04 246.52 80.4L248.2 75.96H250.48L247.36 84.72C246.24 87.84 244.88 90.32 243.28 92.16C241.68 93.92 239.96 95.16 238.12 95.88C236.28 96.68 234.44 97.08 232.6 97.08C229.16 97.08 226.84 96.28 225.64 94.68C224.44 93.08 224 91 224.32 88.44C224.64 85.88 225.32 83.16 226.36 80.28L239.2 43.92Z" fill="#D37F59"/>
<path fill-rule="evenodd" clip-rule="evenodd" d="M298.36 103.2C294.52 106.4 290.88 108.92 287.44 110.76C285.92 109.56 284.32 108.48 282.64 107.52C281.04 106.56 279.32 106.08 277.48 106.08C275.8 106.08 274.32 106.52 273.04 107.4C271.68 108.36 271 109.72 271 111.48C271 113.08 271.6 114.28 272.8 115.08C274 115.96 275.4 116.4 277 116.4C278.12 116.4 279.52 116.16 281.2 115.68C282.96 115.28 285.04 114.52 287.44 113.4C291.28 111.56 294.72 109.36 297.76 106.8C300.88 104.32 303.56 101.88 305.8 99.48C308.04 97.08 309.8 95.08 311.08 93.48C313.96 89.88 316.8 85.88 319.6 81.48C322.4 77 324.92 72.36 327.16 67.56C329.48 62.76 331.32 58.04 332.68 53.4C334.04 48.68 334.72 44.28 334.72 40.2C334.72 37 334.2 34.6 333.16 33C332.2 31.32 330.64 30.48 328.48 30.48C326.8 30.48 325.4 30.96 324.28 31.92C323.16 32.88 322.52 34.28 322.36 36.12C322.28 37.96 322.72 39.64 323.68 41.16C324.64 42.6 325.84 43.88 327.28 45C328.8 46.04 330.2 46.92 331.48 47.64C329.96 55.24 327.24 62.8 323.32 70.32C320.835 75.1343 318.166 79.6471 315.313 83.8585C313.757 86.1553 312.146 88.3625 310.48 90.48C309.244 92.0732 308.018 93.5675 306.802 94.9628C303.929 98.2617 301.115 101.007 298.36 103.2Z" fill="#D37F59"/>
<path d="M283.44 32.16L282.72 34.56C282.559 34.56 293.01 34.56 294.22 35.34C295.22 35.84 296.66 37.38 297.22 38.34C297.78 39.3 298.08 41.8 298.48 44.28L306.802 94.9628C308.018 93.5675 309.244 92.0732 310.48 90.48C312.146 88.3625 313.757 86.1553 315.313 83.8585L309.16 43.2C308.6 38.96 307.64 36.08 306.28 34.56C304.92 32.96 303 32.16 300.52 32.16H283.44Z" fill="#D37F59"/>
<path fill-rule="evenodd" clip-rule="evenodd" d="M260.56 32.16L259.84 34.56H270.686H281.123H282.72L283.44 32.16H281.768L281.8 32.04C282.84 28.04 283.8 24.24 284.68 20.64C285.64 17.04 286.64 13.88 287.68 11.16C288.8 8.36001 290.08 6.28 291.52 4.92C292.4 4.12 293.4 3.4 294.52 2.76C295.64 2.12 296.96 1.80001 298.48 1.80001C300.08 1.80001 301.4 2.12 302.44 2.76C303.48 3.32 304 3.96 304 4.68C302 5.24 300.36 6.24 299.08 7.68C297.8 9.04 297.16 10.72 297.16 12.72C297.08 14 297.48 15 298.36 15.72C299.24 16.44 300.44 16.8 301.96 16.8C303.48 16.8 304.84 16.4 306.04 15.6C307.24 14.8 308.2 13.76 308.92 12.48C309.64 11.2 310 9.88001 310 8.52C310 6.12 309 4.12 307 2.52C305.08 0.840001 302.28 0 298.6 0C295.8 0 293.04 0.560002 290.32 1.68001C287.68 2.72 285.44 4.16 283.6 6C280.88 8.64 278.56 12.04 276.64 16.2C274.8 20.36 273.04 25.64 271.36 32.04L271.328 32.16H260.56Z" fill="#D37F59"/>
<path d="M253.96 115.2C255.8 114.96 257.68 114.8 259.6 114.72L281.123 34.56H270.686L248.8 116.4C250.4 115.84 252.12 115.44 253.96 115.2Z" fill="#D37F59"/>
<path fill-rule="evenodd" clip-rule="evenodd" d="M298.36 103.2C294.52 106.4 290.88 108.92 287.44 110.76C285.92 109.56 284.32 108.48 282.64 107.52C281.04 106.56 279.32 106.08 277.48 106.08C275.8 106.08 274.32 106.52 273.04 107.4C271.68 108.36 271 109.72 271 111.48C271 113.08 271.6 114.28 272.8 115.08C274 115.96 275.4 116.4 277 116.4C278.12 116.4 279.52 116.16 281.2 115.68C282.96 115.28 285.04 114.52 287.44 113.4C291.28 111.56 294.72 109.36 297.76 106.8C300.88 104.32 303.56 101.88 305.8 99.48C308.04 97.08 309.8 95.08 311.08 93.48C313.96 89.88 316.8 85.88 319.6 81.48C322.4 77 324.92 72.36 327.16 67.56C329.48 62.76 331.32 58.04 332.68 53.4C334.04 48.68 334.72 44.28 334.72 40.2C334.72 37 334.2 34.6 333.16 33C332.2 31.32 330.64 30.48 328.48 30.48C326.8 30.48 325.4 30.96 324.28 31.92C323.16 32.88 322.52 34.28 322.36 36.12C322.28 37.96 322.72 39.64 323.68 41.16C324.64 42.6 325.84 43.88 327.28 45C328.8 46.04 330.2 46.92 331.48 47.64C329.96 55.24 327.24 62.8 323.32 70.32C320.835 75.1343 318.166 79.6471 315.313 83.8585C313.757 86.1553 312.146 88.3625 310.48 90.48C309.244 92.0732 308.018 93.5675 306.802 94.9628C303.929 98.2617 301.115 101.007 298.36 103.2Z" fill="#D37F59"/>
<path d="M283.44 32.16L282.72 34.56C282.559 34.56 293.01 34.56 294.22 35.34C295.22 35.84 296.66 37.38 297.22 38.34C297.78 39.3 298.08 41.8 298.48 44.28L306.802 94.9628C308.018 93.5675 309.244 92.0732 310.48 90.48C312.146 88.3625 313.757 86.1553 315.313 83.8585L309.16 43.2C308.6 38.96 307.64 36.08 306.28 34.56C304.92 32.96 303 32.16 300.52 32.16H283.44Z" fill="#D37F59"/>
</svg>
