<svg width="163" height="230" viewBox="0 0 163 230" fill="none" xmlns="http://www.w3.org/2000/svg">
<path d="M45.0486 45.1124C46.2784 46.6149 50.3982 49.2592 57.039 47.8169C65.34 46.0139 85.6313 32.4917 88.3984 32.4917C91.1655 32.4917 105 41.5065 105 41.5065C105.243 41.6249 105.183 41.8742 104.89 42.2234C111.356 45.2519 119.611 48.3813 128.059 49.6198C146.506 52.3243 152.962 48.7183 152.962 48.7183C153.884 51.4228 137.804 52.6928 128.059 51.4228C122.074 50.6428 112.532 47.9981 106.845 46.0139C105.2 45.4398 103.703 44.8656 102.327 44.295C98.0612 47.255 90.2715 51.6566 88.3984 53.2258C82.3988 58.2521 81.9744 60.1645 81.2042 61.1333C83.1911 58.9624 88.2157 54.8257 93.9324 54.1273C99.8354 53.4061 103.771 53.8268 105 54.1273C97.6218 55.9302 82.6799 64.0436 81.9421 82.0732C81.0197 104.61 109.612 139.768 122.525 154.192C135.438 168.616 148.35 211.887 147.428 220C133.285 215.793 92.0879 225.25 83.7867 206.478C75.3761 187.458 33.0583 199.266 29.3689 193.857C25.6796 188.448 25.6796 155.093 26.6019 144.275C27.5243 133.458 33.9807 105.512 38.5924 95.5954C43.2041 85.6791 43.2041 87.4821 43.2041 84.7776C43.2041 82.0732 41.3594 82.0732 39.5147 80.2702C37.6701 78.4673 35.8254 75.7628 35.8254 73.0584C35.8254 70.3539 35.8254 65.8465 40.4371 61.3391C38.8998 59.8366 36.0099 56.4711 36.7477 55.0287C37.4856 53.5864 42.5891 47.8169 45.0486 45.1124Z" fill="#302D30"/>
<path d="M57.0391 14.6965C57.654 15.2975 58.3304 16.8601 56.1168 18.3024C53.3498 20.1054 51.5051 17.4009 51.5051 15.598C51.5051 13.795 51.5051 11.0906 55.1944 10.1891C58.8838 9.2876 62.5731 11.7575 63.4955 14.462C64.4178 17.1664 64.4178 21.6739 59.8061 29.7872C56.8407 35.0043 50.3513 43.5922 39.5147 56.8317C32.136 65.8465 13.6893 85.0121 10 85.0121C16.4563 78.4012 30.4758 63.9174 34.9031 58.8691C40.4371 52.5588 54.2721 35.4306 57.9614 28.2187C61.6508 21.0069 62.5731 17.1664 60.7284 14.462C58.8838 11.7575 57.9614 11.7575 55.1944 12.659C52.9808 13.3802 53.9647 14.997 54.2721 15.598C54.4023 16.199 54.9534 17.2206 56.1168 16.4995L57.0391 14.6965Z" fill="#302D30"/>
<path d="M84.7092 35.1961C81.0198 33.7537 72.7188 23.4768 74.5634 22.5754C79.7285 28.3448 85.324 32.7922 88.3985 33.3931L92.677 35.1961H84.7092Z" fill="#302D30"/>
</svg>
