<svg width="48" height="48" viewBox="0 0 48 48" fill="none" xmlns="http://www.w3.org/2000/svg">
<path d="M25.9999 40C26.5304 40 27.0391 40.2107 27.4142 40.5858C27.7892 40.9608 27.9999 41.4696 27.9999 42C27.9999 42.5304 27.7892 43.0391 27.4142 43.4142C27.0391 43.7893 26.5304 44 25.9999 44C25.4695 44 24.9608 43.7893 24.5857 43.4142C24.2107 43.0391 23.9999 42.5304 23.9999 42C23.9999 41.4696 24.2107 40.9608 24.5857 40.5858C24.9608 40.2107 25.4695 40 25.9999 40ZM18.9999 38C19.5304 38 20.0391 38.2107 20.4142 38.5858C20.7892 38.9608 20.9999 39.4696 20.9999 40C20.9999 40.5304 20.7892 41.0391 20.4142 41.4142C20.0391 41.7893 19.5304 42 18.9999 42C18.4695 42 17.9608 41.7893 17.5857 41.4142C17.2107 41.0391 16.9999 40.5304 16.9999 40C16.9999 39.4696 17.2107 38.9608 17.5857 38.5858C17.9608 38.2107 18.4695 38 18.9999 38ZM32.9999 38C33.5304 38 34.0391 38.2107 34.4142 38.5858C34.7892 38.9608 34.9999 39.4696 34.9999 40C34.9999 40.5304 34.7892 41.0391 34.4142 41.4142C34.0391 41.7893 33.5304 42 32.9999 42C32.4695 42 31.9608 41.7893 31.5857 41.4142C31.2107 41.0391 30.9999 40.5304 30.9999 40C30.9999 39.4696 31.2107 38.9608 31.5857 38.5858C31.9608 38.2107 32.4695 38 32.9999 38ZM26.0039 12.018C32.3399 12.018 35.9359 16.212 36.4579 21.278H36.6179C37.5865 21.2767 38.5458 21.4662 39.4411 21.8357C40.3364 22.2052 41.1501 22.7474 41.8358 23.4314C42.5215 24.1154 43.0657 24.9278 43.4374 25.8222C43.8091 26.7166 44.0009 27.6755 44.0019 28.644C44.0006 29.6124 43.8086 30.571 43.4368 31.4651C43.065 32.3593 42.5208 33.1715 41.8351 33.8553C41.1494 34.5391 40.3358 35.0811 39.4406 35.4505C38.5455 35.8199 37.5863 36.0093 36.6179 36.008H15.3879C14.4196 36.0093 13.4604 35.8199 12.5653 35.4505C11.6701 35.0811 10.8565 34.5391 10.1708 33.8553C9.48514 33.1715 8.94088 32.3593 8.56908 31.4651C8.19729 30.571 8.00526 29.6124 8.00395 28.644C8.005 27.6755 8.19684 26.7166 8.56851 25.8222C8.94018 24.9278 9.48441 24.1154 10.1701 23.4314C10.8558 22.7474 11.6695 22.2052 12.5648 21.8357C13.4601 21.4662 14.4194 21.2767 15.3879 21.278H15.5479C16.0739 16.178 19.6679 12.018 26.0039 12.018ZM26.0039 15.012C21.8599 15.012 18.2499 18.28 18.2499 22.792C18.2499 23.506 17.6119 24.068 16.8819 24.068H15.5019C12.9779 24.068 10.9339 26.068 10.9339 28.54C10.9339 31.01 12.9779 33.012 15.4999 33.012H36.5059C39.0279 33.012 41.0719 31.012 41.0719 28.54C41.0719 26.07 39.0279 24.068 36.5059 24.068H35.1259C34.3959 24.068 33.7579 23.508 33.7579 22.792C33.7579 18.222 30.1459 15.012 26.0039 15.012ZM8.73395 20.328C8.87303 20.6629 8.88604 21.0369 8.77058 21.3807C8.65512 21.7246 8.419 22.0149 8.10595 22.198L7.92395 22.288L6.06995 23.056C5.71924 23.1989 5.32743 23.2039 4.97319 23.07C4.61896 22.936 4.3285 22.673 4.16015 22.3337C3.99179 21.9945 3.95799 21.6041 4.06553 21.241C4.17308 20.8779 4.414 20.5688 4.73995 20.376L4.92195 20.284L6.77595 19.516C6.95796 19.4406 7.15304 19.4018 7.35005 19.4018C7.54706 19.4018 7.74213 19.4406 7.92414 19.516C8.10615 19.5914 8.27152 19.7019 8.41081 19.8412C8.5501 19.9806 8.65859 20.146 8.73395 20.328ZM21.7099 10.662L21.3679 10.778C20.3275 11.142 19.3443 11.6525 18.4479 12.294C17.4849 11.9806 16.4482 11.9743 15.4814 12.2761C14.5146 12.5778 13.6655 13.1727 13.0517 13.9783C12.4379 14.7839 12.0897 15.7604 12.0554 16.7726C12.021 17.7848 12.3022 18.7826 12.8599 19.628C11.8844 19.9012 10.9606 20.3337 10.1259 20.908C9.20929 19.3324 8.86688 17.4879 9.15701 15.6884C9.44714 13.8888 10.3519 12.2454 11.7172 11.0377C13.0826 9.8301 14.8242 9.13289 16.6458 9.06475C18.4673 8.9966 20.2562 9.56174 21.7079 10.664M5.88195 10.726L6.09195 10.796L7.94395 11.564C8.29127 11.7104 8.57075 11.9822 8.72676 12.3253C8.88277 12.6685 8.90389 13.0577 8.78591 13.4157C8.66792 13.7737 8.41949 14.0742 8.09004 14.2573C7.76059 14.4404 7.37427 14.4928 7.00795 14.404L6.79595 14.336L4.94395 13.568C4.5957 13.422 4.31532 13.1501 4.15879 12.8064C4.00226 12.4628 3.98109 12.0727 4.09952 11.7142C4.21794 11.3556 4.46724 11.0549 4.79765 10.8721C5.12806 10.6893 5.51526 10.6358 5.88195 10.726ZM13.5119 4.75599L13.6019 4.93799L14.3699 6.78999C14.515 7.14101 14.5214 7.53398 14.388 7.88958C14.2546 8.24518 13.9913 8.53694 13.6512 8.70598C13.3111 8.87502 12.9195 8.90875 12.5555 8.80036C12.1915 8.69197 11.8822 8.44954 11.6899 8.12199L11.5979 7.93799L10.8299 6.08599C10.687 5.73528 10.682 5.34348 10.816 4.98924C10.9499 4.635 11.2129 4.34455 11.5522 4.17619C11.8914 4.00783 12.2818 3.97403 12.6449 4.08158C13.0081 4.18912 13.3191 4.43005 13.5119 4.75599ZM22.2159 4.11799C22.5484 4.25546 22.8203 4.50781 22.9822 4.82905C23.1441 5.15028 23.1852 5.519 23.0979 5.86799L23.0279 6.07799L22.2619 7.92999C22.1177 8.28053 21.846 8.56345 21.5016 8.72186C21.1572 8.88026 20.7657 8.9024 20.4056 8.78382C20.0456 8.66524 19.7438 8.41473 19.5609 8.08268C19.378 7.75063 19.3277 7.36166 19.4199 6.99399L19.4899 6.78199L20.2559 4.92999C20.3313 4.74796 20.4418 4.58257 20.5811 4.44324C20.7204 4.30392 20.8857 4.1934 21.0678 4.118C21.2498 4.0426 21.4448 4.00379 21.6418 4.00378C21.8389 4.00378 22.0339 4.04259 22.2159 4.11799Z" fill="#302D30"/>
</svg>
