<svg width="48" height="48" viewBox="0 0 48 48" fill="none" xmlns="http://www.w3.org/2000/svg">
<path d="M4.5 24L22.41 6.09C22.6188 5.88113 22.8666 5.71543 23.1395 5.60239C23.4123 5.48934 23.7047 5.43115 24 5.43115C24.2953 5.43115 24.5877 5.48934 24.8605 5.60239C25.1334 5.71543 25.3812 5.88113 25.59 6.09L43.5 24M9 19.5V39.75C9 40.992 10.008 42 11.25 42H19.5V32.25C19.5 31.008 20.508 30 21.75 30H26.25C27.492 30 28.5 31.008 28.5 32.25V42H36.75C37.992 42 39 40.992 39 39.75V19.5M16.5 42H33" stroke="#302D30" stroke-width="3" stroke-linecap="round" stroke-linejoin="round"/>
</svg>
