<svg width="95" height="34" viewBox="0 0 95 34" fill="none" xmlns="http://www.w3.org/2000/svg">
<path d="M12.5308 24.6546C12.3736 25.1763 12.3062 25.6639 12.3286 26.1175C12.3736 26.5485 12.6432 26.7639 13.1374 26.7639C13.5868 26.7639 14.0024 26.5144 14.3843 26.0155C14.7662 25.4938 15.1706 24.5866 15.5975 23.2938L16.0019 22.035H16.6422L15.8671 24.5186C15.5975 25.4258 15.238 26.1402 14.7887 26.6619C14.3394 27.1608 13.8676 27.5124 13.3733 27.7165C12.8791 27.9206 12.4073 28.0227 11.9579 28.0227C10.6099 28.0227 9.90225 27.3763 9.83484 26.0835C9.81238 25.7206 9.83484 25.301 9.90224 24.8247C9.99211 24.3485 10.1157 23.8268 10.2729 23.2598L15.1257 4.85464C15.3279 4.0835 15.2942 3.51649 15.0246 3.15361C14.755 2.79072 14.0698 2.60928 12.9689 2.60928L13.1711 1.89485C14.4068 1.87216 15.4964 1.74742 16.44 1.52062C17.3836 1.27113 18.2823 0.930928 19.136 0.5L12.5308 24.6546ZM4.98207 26.934C5.54374 26.934 6.1728 26.6052 6.86926 25.9474C7.58819 25.267 8.30712 24.3598 9.02605 23.2258C9.76745 22.0691 10.4414 20.7649 11.048 19.3134C11.6771 17.8392 12.1714 16.3196 12.5308 14.7546L12.0253 18.4289C11.1491 20.7649 10.2729 22.6361 9.39675 24.0423C8.54302 25.4485 7.66682 26.4691 6.76816 27.1041C5.89197 27.7165 4.97084 28.0227 4.00478 28.0227C3.30832 28.0227 2.69049 27.8639 2.15129 27.5464C1.63456 27.2062 1.23016 26.7072 0.938097 26.0495C0.646032 25.3918 0.5 24.5526 0.5 23.532C0.5 22.4433 0.668499 21.2753 1.0055 20.0278C1.36496 18.7577 1.87046 17.5103 2.52199 16.2856C3.17352 15.0608 3.94861 13.9495 4.84727 12.9515C5.7684 11.9309 6.7794 11.1144 7.88026 10.5021C8.98112 9.88969 10.1494 9.5835 11.385 9.5835C11.9018 9.5835 12.3848 9.78763 12.8341 10.1959C13.2835 10.5814 13.5306 11.1711 13.5755 11.9649L13.3059 12.6454C13.2161 11.8289 12.9914 11.2505 12.6319 10.9103C12.2725 10.5474 11.8681 10.366 11.4187 10.366C10.565 10.366 9.73375 10.6608 8.92495 11.2505C8.13862 11.8402 7.41969 12.6227 6.76816 13.5979C6.11663 14.5732 5.54374 15.6619 5.04947 16.8639C4.55521 18.0433 4.17328 19.2567 3.90368 20.5041C3.63408 21.7289 3.49928 22.8856 3.49928 23.9742C3.49928 24.9722 3.62285 25.7206 3.86998 26.2196C4.11711 26.6959 4.48781 26.934 4.98207 26.934Z" fill="#302D30"/>
<path d="M20.787 27.5464H17.8552L21.8991 12.9515C22.1238 12.1804 22.1912 11.6361 22.1013 11.3186C22.0339 11.001 21.8093 10.8423 21.4273 10.8423C20.9331 10.8423 20.4837 11.1031 20.0793 11.6247C19.6749 12.1464 19.2481 13.0423 18.7987 14.3124L16.6422 22.035H16.0019L18.5629 13.0876C18.8998 12.1351 19.293 11.4093 19.7423 10.9103C20.2141 10.4113 20.6972 10.0711 21.1914 9.88969C21.7082 9.68557 22.1912 9.5835 22.6405 9.5835C23.3145 9.5835 23.7863 9.73093 24.0559 10.0258C24.348 10.3206 24.5052 10.7062 24.5277 11.1825C24.5726 11.6588 24.5389 12.1804 24.4266 12.7474C24.3367 13.2918 24.2244 13.8247 24.0896 14.3464L20.787 27.5464ZM29.4479 10.434C28.9312 10.434 28.392 10.6835 27.8303 11.1825C27.2911 11.6588 26.7294 12.3619 26.1453 13.2918C25.5836 14.199 25.0107 15.299 24.4266 16.5918C23.865 17.8619 23.3033 19.2794 22.7416 20.8443C22.2024 22.4093 21.6745 24.099 21.1577 25.9134L22.0002 21.5588C22.7416 19.3361 23.4269 17.4649 24.0559 15.9454C24.7074 14.4258 25.3477 13.201 25.9768 12.2711C26.6059 11.3186 27.2462 10.6381 27.8977 10.2299C28.5717 9.79897 29.2794 9.5835 30.0208 9.5835C30.6498 9.5835 31.1329 9.76495 31.4699 10.1278C31.8293 10.4907 32.0091 10.9557 32.0091 11.5227C32.0091 11.9763 31.8967 12.3959 31.6721 12.7814C31.4474 13.1443 31.1553 13.4392 30.7959 13.666C30.4589 13.8701 30.0769 13.9722 29.6501 13.9722C29.2682 13.9722 28.9424 13.8701 28.6728 13.666C28.4257 13.4392 28.3021 13.133 28.3021 12.7474C28.3021 12.3845 28.3695 12.067 28.5043 11.7948C28.6391 11.5 28.8188 11.2505 29.0435 11.0464C29.2682 10.8423 29.5265 10.6835 29.8186 10.5701C29.7737 10.5247 29.7175 10.4907 29.6501 10.468C29.6052 10.4454 29.5378 10.434 29.4479 10.434Z" fill="#302D30"/>
<path d="M30.3637 19.8237C31.6218 19.3928 32.7563 18.9732 33.7673 18.5649C34.8008 18.134 35.6208 17.6804 36.2274 17.2041C37.0362 16.5464 37.6765 15.7526 38.1483 14.8227C38.6201 13.8928 38.856 12.8722 38.856 11.7608C38.856 11.1031 38.8111 10.6835 38.7212 10.5021C38.6313 10.3206 38.4965 10.2299 38.3168 10.2299C37.7551 10.2299 37.1485 10.4794 36.497 10.9783C35.8455 11.4773 35.2052 12.1691 34.5761 13.0536C33.9471 13.9155 33.3629 14.9021 32.8237 16.0134C32.307 17.1247 31.8914 18.3155 31.5769 19.5856C31.2623 20.833 31.1051 22.0804 31.1051 23.3278C31.1051 24.4845 31.3185 25.3237 31.7454 25.8454C32.1722 26.3443 32.7339 26.5938 33.4303 26.5938C34.2391 26.5938 35.4579 26.3443 36.3566 25.8454C37.2553 25.3464 38.2242 24.7057 39.0779 23.4356L39.5862 23.6811C39.1593 24.4296 38.8785 24.7811 38.182 25.4842C37.4855 26.1873 36.1095 27.0247 35.2333 27.4783C34.3795 27.9093 33.3517 28.0227 32.3856 28.0227C31.487 28.0227 30.7007 27.8412 30.0267 27.4783C29.3527 27.1155 28.8359 26.5825 28.4765 25.8794C28.117 25.1536 27.9373 24.2691 27.9373 23.2258C27.9373 22.2505 28.117 21.1619 28.4765 19.9598C28.8359 18.7351 29.3414 17.5216 29.993 16.3196C30.667 15.0948 31.4645 13.9722 32.3856 12.9515C33.3068 11.9309 34.329 11.1144 35.4523 10.5021C36.5757 9.88969 37.7776 9.5835 39.0582 9.5835C39.7547 9.5835 40.3388 9.77629 40.8106 10.1619C41.3049 10.5247 41.552 11.0804 41.552 11.8289C41.552 12.7361 41.2824 13.5866 40.7432 14.3804C40.2265 15.1515 39.53 15.866 38.6538 16.5237C37.8001 17.1588 36.8677 17.7258 35.8567 18.2247C34.8457 18.7237 33.8572 19.1546 32.8911 19.5175C31.9251 19.8804 31.0714 20.1753 30.33 20.4021L30.3637 19.8237Z" fill="#302D30"/>
<path d="M42.2878 27.0492C42.4675 27.1399 42.6585 27.2193 42.8607 27.2873C43.0853 27.3327 43.4111 27.3553 43.838 27.3553C44.8265 27.3553 45.6353 27.0605 46.2643 26.4708C46.9159 25.8584 47.2416 24.9852 47.2416 23.8512C47.2416 23.1481 47.1068 22.4564 46.8372 21.776C46.5901 21.0729 46.1408 20.2677 45.4893 19.3605C44.9725 18.6347 44.4783 17.8976 44.0065 17.1492C43.5347 16.378 43.2988 15.4708 43.2988 14.4275C43.2988 13.4522 43.5347 12.6131 44.0065 11.91C44.4783 11.1842 45.1073 10.6172 45.8936 10.2089C46.7024 9.8007 47.5786 9.59658 48.5222 9.59658C49.1738 9.59658 49.8141 9.67596 50.4431 9.83472C51.0722 9.99348 51.5889 10.2883 51.9933 10.7193C52.4202 11.1275 52.6336 11.7399 52.6336 12.5564C52.6336 12.7605 52.5774 13.01 52.4651 13.3048C52.3752 13.577 52.218 13.8151 51.9933 14.0193C51.7686 14.2234 51.4653 14.3254 51.0834 14.3254C50.7239 14.3254 50.4094 14.2007 50.1398 13.9512C49.8702 13.6791 49.7354 13.3275 49.7354 12.8966C49.7354 12.4883 49.8141 12.1028 49.9713 11.7399C50.1511 11.3543 50.387 10.9801 50.679 10.6172C50.2522 10.345 49.6905 10.2089 48.994 10.2089C48.1628 10.2089 47.4663 10.4925 46.9046 11.0595C46.343 11.6265 46.0621 12.4203 46.0621 13.4409C46.0621 13.9626 46.1408 14.4275 46.298 14.8358C46.4553 15.2213 46.68 15.6296 46.972 16.0605C47.2866 16.4914 47.6573 17.0358 48.0841 17.6935C48.6458 18.5553 49.1176 19.3832 49.4995 20.177C49.8815 20.9708 50.0724 21.81 50.0724 22.6945C50.0724 23.7378 49.8028 24.6677 49.2636 25.4842C48.7469 26.278 48.0504 26.9017 47.1742 27.3553C46.298 27.8089 45.332 28.0358 44.2761 28.0358C43.5122 28.0358 42.782 27.9224 42.0856 27.6955C41.3891 27.4687 40.8162 27.1172 40.3669 26.6409C39.94 26.1419 39.7266 25.4842 39.7266 24.6677C39.7266 24.3502 39.8277 24.0213 40.0299 23.6811C40.2096 23.3182 40.5466 23.1368 41.0409 23.1368C41.5801 23.1368 41.962 23.3636 42.1867 23.8172C42.4113 24.2481 42.5237 24.7358 42.5237 25.2801C42.5237 25.643 42.49 25.9718 42.4226 26.2667C42.3776 26.5388 42.3327 26.7997 42.2878 27.0492Z" fill="#302D30"/>
<path d="M53.111 27.0361C53.2908 27.1268 53.4817 27.2062 53.6839 27.2742C53.9086 27.3196 54.2343 27.3423 54.6612 27.3423C55.6497 27.3423 56.4585 27.0474 57.0876 26.4577C57.7391 25.8454 58.0649 24.9722 58.0649 23.8381C58.0649 23.135 57.9301 22.4433 57.6605 21.7629C57.4134 21.0598 56.964 20.2546 56.3125 19.3474C55.7958 18.6217 55.3015 17.8845 54.8297 17.1361C54.3579 16.3649 54.122 15.4577 54.122 14.4144C54.122 13.4392 54.3579 12.6 54.8297 11.8969C55.3015 11.1711 55.9306 10.6041 56.7169 10.1959C57.5257 9.78763 58.4019 9.5835 59.3455 9.5835C59.997 9.5835 60.6373 9.66289 61.2664 9.82165C61.8954 9.98041 62.4122 10.2753 62.8166 10.7062C63.2434 11.1144 63.4569 11.7268 63.4569 12.5433C63.4569 12.7474 63.4007 12.9969 63.2884 13.2918C63.1985 13.5639 63.0412 13.8021 62.8166 14.0062C62.5919 14.2103 62.2886 14.3124 61.9067 14.3124C61.5472 14.3124 61.2327 14.1876 60.9631 13.9381C60.6935 13.666 60.5587 13.3144 60.5587 12.8835C60.5587 12.4753 60.6373 12.0897 60.7946 11.7268C60.9743 11.3412 61.2102 10.967 61.5023 10.6041C61.0754 10.332 60.5137 10.1959 59.8173 10.1959C58.986 10.1959 58.2896 10.4794 57.7279 11.0464C57.1662 11.6134 56.8854 12.4072 56.8854 13.4278C56.8854 13.9495 56.964 14.4144 57.1213 14.8227C57.2786 15.2082 57.5032 15.6165 57.7953 16.0474C58.1098 16.4784 58.4805 17.0227 58.9074 17.6804C59.469 18.5423 59.9408 19.3701 60.3228 20.1639C60.7047 20.9577 60.8957 21.7969 60.8957 22.6814C60.8957 23.7247 60.6261 24.6546 60.0869 25.4711C59.5701 26.2649 58.8737 26.8887 57.9975 27.3423C57.1213 27.7959 56.1552 28.0227 55.0993 28.0227C54.3354 28.0227 53.6053 27.9093 52.9088 27.6825C52.2124 27.4557 51.6395 27.1041 51.1901 26.6278C50.7633 26.1289 50.5498 25.4711 50.5498 24.6546C50.5498 24.3371 50.6509 24.0082 50.8531 23.668C51.0329 23.3052 51.3699 23.1237 51.8641 23.1237C52.4033 23.1237 52.7853 23.3505 53.0099 23.8041C53.2346 24.2351 53.3469 24.7227 53.3469 25.267C53.3469 25.6299 53.3132 25.9588 53.2458 26.2536C53.2009 26.5258 53.156 26.7866 53.111 27.0361Z" fill="#302D30"/>
<path d="M68.7196 3.86804C68.832 3.27835 69.124 2.76804 69.5958 2.33711C70.0901 1.90618 70.6181 1.69072 71.1797 1.69072C71.7639 1.69072 72.2132 1.90618 72.5277 2.33711C72.8647 2.76804 72.9771 3.27835 72.8647 3.86804C72.7524 4.45773 72.4491 4.96804 71.9548 5.39897C71.483 5.8299 70.9551 6.04536 70.3709 6.04536C69.8093 6.04536 69.3599 5.8299 69.0229 5.39897C68.7084 4.96804 68.6073 4.45773 68.7196 3.86804ZM67.675 12.9515C68.1468 11.5454 67.9895 10.8423 67.2032 10.8423C66.6864 10.8423 66.2259 11.1258 65.8215 11.6928C65.4171 12.2598 64.9902 13.133 64.5409 14.3124L64.0691 15.5711H63.4288L64.305 13.0876C64.642 12.1351 65.0464 11.4093 65.5182 10.9103C65.99 10.4113 66.4842 10.0711 67.001 9.88969C67.5402 9.68557 68.0344 9.5835 68.4838 9.5835C69.2027 9.5835 69.7307 9.73093 70.0676 10.0258C70.4046 10.3206 70.6068 10.7062 70.6742 11.1825C70.7416 11.6588 70.7192 12.1804 70.6068 12.7474C70.4945 13.2918 70.3485 13.8247 70.1687 14.3464L66.5629 24.6546C66.3382 25.3124 66.2596 25.834 66.327 26.2196C66.4168 26.5825 66.6752 26.7639 67.1021 26.7639C67.5514 26.7639 67.9783 26.5144 68.3827 26.0155C68.7871 25.5165 69.2364 24.6093 69.7307 23.2938L70.2024 22.035H70.8427L69.9665 24.5186C69.652 25.4031 69.2701 26.1062 68.8208 26.6278C68.3714 27.1268 67.8884 27.4784 67.3717 27.6825C66.8549 27.9093 66.3382 28.0227 65.8215 28.0227C64.8554 28.0227 64.2039 27.7959 63.8669 27.3423C63.5299 26.8887 63.4063 26.299 63.4962 25.5732C63.586 24.8474 63.777 24.0763 64.0691 23.2598L67.675 12.9515Z" fill="#302D30"/>
<path fill-rule="evenodd" clip-rule="evenodd" d="M84.289 29.7577C83.2106 30.6649 82.1883 31.3794 81.2223 31.901C80.7954 31.5608 80.3461 31.2546 79.8743 30.9825C79.4249 30.7103 78.9419 30.5742 78.4252 30.5742C77.9534 30.5742 77.5378 30.699 77.1783 30.9485C76.7964 31.2206 76.6054 31.6062 76.6054 32.1052C76.6054 32.5588 76.7739 32.899 77.1109 33.1258C77.4479 33.3753 77.8411 33.5 78.2904 33.5C78.6049 33.5 78.9981 33.432 79.4699 33.2959C79.9641 33.1825 80.5483 32.967 81.2223 32.6495C82.3007 32.1278 83.2667 31.5041 84.1205 30.7784C84.9967 30.0753 85.7493 29.3835 86.3784 28.7031C87.0074 28.0227 87.5017 27.4557 87.8611 27.0021C88.6699 25.9814 89.4675 24.8474 90.2538 23.6C91.0402 22.3299 91.7478 21.0144 92.3769 19.6536C93.0284 18.2928 93.5452 16.9546 93.9271 15.6392C94.309 14.301 94.5 13.0536 94.5 11.8969C94.5 10.9897 94.354 10.3093 94.0619 9.85567C93.7923 9.37938 93.3542 9.14124 92.7476 9.14124C92.2758 9.14124 91.8827 9.27732 91.5681 9.54949C91.2536 9.82165 91.0739 10.2186 91.0289 10.7402C91.0065 11.2619 91.13 11.7381 91.3996 12.1691C91.6692 12.5773 92.0062 12.9402 92.4106 13.2577C92.8375 13.5526 93.2306 13.8021 93.5901 14.0062C93.1632 16.1608 92.3994 18.3041 91.2985 20.4361C90.6007 21.801 89.8512 23.0804 89.0499 24.2743C88.6128 24.9255 88.1604 25.5512 87.6926 26.1515C87.3454 26.6032 87.0011 27.0269 86.6598 27.4225C85.8529 28.3577 85.0626 29.1361 84.289 29.7577Z" fill="#302D30"/>
<path d="M80.099 9.61753L79.8968 10.2979C79.8515 10.2979 82.7865 10.2979 83.1263 10.5191C83.4072 10.6608 83.8115 11.0974 83.9688 11.3696C84.1261 11.6418 84.2103 12.3505 84.3226 13.0536L86.6598 27.4225C87.0011 27.0269 87.3454 26.6032 87.6926 26.1515C88.1604 25.5512 88.6128 24.9255 89.0499 24.2743L87.3219 12.7474C87.1647 11.5454 86.8951 10.7289 86.5131 10.2979C86.1312 9.84433 85.592 9.61753 84.8956 9.61753H80.099Z" fill="#302D30"/>
<path fill-rule="evenodd" clip-rule="evenodd" d="M73.6735 9.61753L73.4713 10.2979H76.5172H79.4484H79.8968L80.099 9.61753H79.6293L79.6384 9.58351C79.9304 8.44949 80.2 7.37217 80.4472 6.35155C80.7168 5.33093 80.9976 4.43505 81.2897 3.66392C81.6042 2.8701 81.9637 2.28041 82.3681 1.89485C82.6152 1.66804 82.896 1.46392 83.2106 1.28247C83.5251 1.10103 83.8958 1.01031 84.3226 1.01031C84.772 1.01031 85.1427 1.10103 85.4347 1.28247C85.7268 1.44124 85.8728 1.62268 85.8728 1.82681C85.3112 1.98557 84.8506 2.26907 84.4912 2.67732C84.1317 3.06289 83.952 3.53918 83.952 4.10619C83.9295 4.46907 84.0418 4.75258 84.2889 4.9567C84.5361 5.16083 84.8731 5.26289 85.2999 5.26289C85.7268 5.26289 86.1087 5.14949 86.4457 4.92268C86.7827 4.69588 87.0523 4.40103 87.2545 4.03815C87.4567 3.67526 87.5578 3.30103 87.5578 2.91547C87.5578 2.23505 87.277 1.66804 86.7153 1.21443C86.1761 0.738145 85.3898 0.5 84.3564 0.5C83.57 0.5 82.7949 0.658764 82.0311 0.976291C81.2897 1.27113 80.6606 1.67938 80.1439 2.20103C79.38 2.94948 78.7285 3.9134 78.1893 5.09279C77.6726 6.27217 77.1783 7.76907 76.7065 9.58351L76.6975 9.61753H73.6735Z" fill="#302D30"/>
<path d="M71.82 33.1598C72.3368 33.0918 72.8647 33.0464 73.4039 33.0237L79.4484 10.2979H76.5172L70.3709 33.5C70.8203 33.3412 71.3033 33.2278 71.82 33.1598Z" fill="#302D30"/>
<path fill-rule="evenodd" clip-rule="evenodd" d="M84.289 29.7577C83.2106 30.6649 82.1883 31.3794 81.2223 31.901C80.7954 31.5608 80.3461 31.2546 79.8743 30.9825C79.4249 30.7103 78.9419 30.5742 78.4252 30.5742C77.9534 30.5742 77.5378 30.699 77.1783 30.9485C76.7964 31.2206 76.6054 31.6062 76.6054 32.1052C76.6054 32.5588 76.7739 32.899 77.1109 33.1258C77.4479 33.3753 77.8411 33.5 78.2904 33.5C78.6049 33.5 78.9981 33.432 79.4699 33.2959C79.9641 33.1825 80.5483 32.967 81.2223 32.6495C82.3007 32.1278 83.2667 31.5041 84.1205 30.7784C84.9967 30.0753 85.7493 29.3835 86.3784 28.7031C87.0074 28.0227 87.5017 27.4557 87.8611 27.0021C88.6699 25.9814 89.4675 24.8474 90.2538 23.6C91.0402 22.3299 91.7478 21.0144 92.3769 19.6536C93.0284 18.2928 93.5452 16.9546 93.9271 15.6392C94.309 14.301 94.5 13.0536 94.5 11.8969C94.5 10.9897 94.354 10.3093 94.0619 9.85567C93.7923 9.37938 93.3542 9.14124 92.7476 9.14124C92.2758 9.14124 91.8827 9.27732 91.5681 9.54949C91.2536 9.82165 91.0739 10.2186 91.0289 10.7402C91.0065 11.2619 91.13 11.7381 91.3996 12.1691C91.6692 12.5773 92.0062 12.9402 92.4106 13.2577C92.8375 13.5526 93.2306 13.8021 93.5901 14.0062C93.1632 16.1608 92.3994 18.3041 91.2985 20.4361C90.6007 21.801 89.8512 23.0804 89.0499 24.2743C88.6128 24.9255 88.1604 25.5512 87.6926 26.1515C87.3454 26.6032 87.0011 27.0269 86.6598 27.4225C85.8529 28.3577 85.0626 29.1361 84.289 29.7577Z" fill="#302D30"/>
<path d="M80.099 9.61753L79.8968 10.2979C79.8515 10.2979 82.7865 10.2979 83.1263 10.5191C83.4072 10.6608 83.8115 11.0974 83.9688 11.3696C84.1261 11.6418 84.2103 12.3505 84.3226 13.0536L86.6598 27.4225C87.0011 27.0269 87.3454 26.6032 87.6926 26.1515C88.1604 25.5512 88.6128 24.9255 89.0499 24.2743L87.3219 12.7474C87.1647 11.5454 86.8951 10.7289 86.5131 10.2979C86.1312 9.84433 85.592 9.61753 84.8956 9.61753H80.099Z" fill="#302D30"/>
</svg>
