<svg width="48" height="48" viewBox="0 0 48 48" fill="none" xmlns="http://www.w3.org/2000/svg">
<path d="M18 30.078C21.3333 30.078 24.1667 28.9073 26.5 26.566C28.8333 24.2247 30 21.382 30 18.038C30 14.694 28.8333 11.8513 26.5 9.51C24.1667 7.16867 21.3333 5.99867 18 6C14.6667 6.00133 11.8333 7.172 9.5 9.512C7.16667 11.852 6 14.694 6 18.038C6 21.382 7.16667 24.2247 9.5 26.566C11.8333 28.9073 14.6667 30.078 18 30.078ZM18 23.192C17.7147 23.192 17.4767 23.096 17.286 22.904C17.0953 22.712 17 22.4747 17 22.192V12.27C17 11.986 17.096 11.748 17.288 11.556C17.48 11.364 17.718 11.2687 18.002 11.27C18.286 11.2713 18.5233 11.3667 18.714 11.556C18.9047 11.7453 19 11.9833 19 12.27V22.192C19 22.476 18.904 22.714 18.712 22.906C18.52 23.098 18.282 23.1933 17.998 23.192M11.306 23.192C11.0233 23.192 10.786 23.0967 10.594 22.906C10.4033 22.714 10.308 22.476 10.308 22.192V16.08C10.308 15.796 10.404 15.558 10.596 15.366C10.788 15.174 11.026 15.0787 11.31 15.08C11.594 15.0813 11.8313 15.1767 12.022 15.366C12.2127 15.5553 12.308 15.7933 12.308 16.08V22.194C12.308 22.478 12.212 22.716 12.02 22.908C11.828 23.0987 11.59 23.194 11.306 23.194M24.692 23.194C24.408 23.194 24.1707 23.0987 23.98 22.908C23.7893 22.7173 23.6933 22.4793 23.692 22.194V18C23.692 17.716 23.788 17.4787 23.98 17.288C24.172 17.096 24.41 17 24.694 17C24.978 17 25.2153 17.096 25.406 17.288C25.5967 17.48 25.692 17.7173 25.692 18V22.192C25.692 22.476 25.596 22.7133 25.404 22.904C25.212 23.0947 24.9747 23.1907 24.692 23.192M18 32C14.092 32 10.7813 30.6447 8.068 27.934C5.356 25.222 4 21.9127 4 18.006C4 14.0993 5.356 10.7887 8.068 8.074C10.78 5.35933 14.0887 4.00133 17.994 4C21.8993 3.99867 25.2107 5.35467 27.928 8.068C30.6427 10.7827 32 14.0933 32 18C32 19.756 31.6953 21.418 31.086 22.986C30.4767 24.554 29.6393 25.9447 28.574 27.158L39.332 37.916C39.5187 38.0947 39.612 38.3213 39.612 38.596C39.612 38.8707 39.5187 39.1093 39.332 39.312C39.1453 39.5147 38.9093 39.608 38.624 39.592C38.3387 39.576 38.1027 39.476 37.916 39.292L27.196 28.572C25.9573 29.6387 24.554 30.4767 22.986 31.086C21.418 31.6953 19.756 32 18 32Z" fill="#302D30"/>
<path d="M18 23.192C17.7147 23.192 17.4767 23.096 17.286 22.904C17.0953 22.712 17 22.4747 17 22.192V12.27C17 11.986 17.096 11.748 17.288 11.556C17.48 11.364 17.718 11.2687 18.002 11.27C18.286 11.2713 18.5233 11.3667 18.714 11.556C18.9047 11.7453 19 11.9833 19 12.27V22.192C19 22.476 18.904 22.714 18.712 22.906C18.52 23.098 18.282 23.1933 17.998 23.192M11.306 23.192C11.0233 23.192 10.786 23.0967 10.594 22.906C10.4033 22.714 10.308 22.476 10.308 22.192V16.08C10.308 15.796 10.404 15.558 10.596 15.366C10.788 15.174 11.026 15.0787 11.31 15.08C11.594 15.0813 11.8313 15.1767 12.022 15.366C12.2127 15.5553 12.308 15.7933 12.308 16.08V22.194C12.308 22.478 12.212 22.716 12.02 22.908C11.828 23.0987 11.59 23.194 11.306 23.194M24.692 23.194C24.408 23.194 24.1707 23.0987 23.98 22.908C23.7893 22.7173 23.6933 22.4793 23.692 22.194V18C23.692 17.716 23.788 17.4787 23.98 17.288C24.172 17.096 24.41 17 24.694 17C24.978 17 25.2153 17.096 25.406 17.288C25.5967 17.48 25.692 17.7173 25.692 18V22.192C25.692 22.476 25.596 22.7133 25.404 22.904C25.212 23.0947 24.9747 23.1907 24.692 23.192M18 30.078C21.3333 30.078 24.1667 28.9073 26.5 26.566C28.8333 24.2247 30 21.382 30 18.038C30 14.694 28.8333 11.8513 26.5 9.51C24.1667 7.16867 21.3333 5.99867 18 6C14.6667 6.00133 11.8333 7.172 9.5 9.512C7.16667 11.852 6 14.694 6 18.038C6 21.382 7.16667 24.2247 9.5 26.566C11.8333 28.9073 14.6667 30.078 18 30.078ZM18 32C14.092 32 10.7813 30.6447 8.068 27.934C5.356 25.222 4 21.9127 4 18.006C4 14.0993 5.356 10.7887 8.068 8.074C10.78 5.35933 14.0887 4.00133 17.994 4C21.8993 3.99867 25.2107 5.35467 27.928 8.068C30.6427 10.7827 32 14.0933 32 18C32 19.756 31.6953 21.418 31.086 22.986C30.4767 24.554 29.6393 25.9447 28.574 27.158L39.332 37.916C39.5187 38.0947 39.612 38.3213 39.612 38.596C39.612 38.8707 39.5187 39.1093 39.332 39.312C39.1453 39.5147 38.9093 39.608 38.624 39.592C38.3387 39.576 38.1027 39.476 37.916 39.292L27.196 28.572C25.9573 29.6387 24.554 30.4767 22.986 31.086C21.418 31.6953 19.756 32 18 32Z" stroke="#302D30"/>
</svg>
