<svg width="48" height="48" viewBox="0 0 48 48" fill="none" xmlns="http://www.w3.org/2000/svg">
<path d="M7.94999 39.6L6.24999 38.9C5.21665 38.4667 4.52532 37.7167 4.17599 36.65C3.82665 35.5834 3.88465 34.5333 4.34999 33.5L7.94999 25.7V39.6ZM15.95 44C14.85 44 13.9087 43.6087 13.126 42.826C12.3433 42.0434 11.9513 41.1013 11.95 40V28L17.25 42.7C17.35 42.9333 17.45 43.1587 17.55 43.376C17.65 43.5933 17.7833 43.8013 17.95 44H15.95ZM26.25 43.8C25.1833 44.2 24.15 44.15 23.15 43.65C22.15 43.15 21.45 42.3667 21.05 41.3L12.15 16.9C11.75 15.8333 11.7833 14.792 12.25 13.776C12.7167 12.76 13.4833 12.068 14.55 11.7L29.65 6.20002C30.7167 5.80002 31.75 5.85002 32.75 6.35002C33.75 6.85002 34.45 7.63335 34.85 8.70002L43.75 33.1C44.15 34.1667 44.1167 35.2087 43.65 36.226C43.1833 37.2434 42.4167 37.9347 41.35 38.3L26.25 43.8ZM21.95 20C22.5167 20 22.992 19.808 23.376 19.424C23.76 19.04 23.9513 18.5653 23.95 18C23.9487 17.4347 23.7573 16.96 23.376 16.576C22.9947 16.192 22.5193 16 21.95 16C21.3807 16 20.906 16.192 20.526 16.576C20.146 16.96 19.954 17.4347 19.95 18C19.946 18.5653 20.138 19.0407 20.526 19.426C20.914 19.8113 21.3887 20.0027 21.95 20ZM24.85 40L39.95 34.5L31.05 10L15.95 15.5L24.85 40Z" fill="#302D30"/>
</svg>
