<svg width="51" height="48" viewBox="0 0 51 48" fill="none" xmlns="http://www.w3.org/2000/svg">
<path fill-rule="evenodd" clip-rule="evenodd" d="M25.7411 12.0464C23.8746 12.0464 22.6735 13.3681 22.6735 14.6362C22.6735 15.0802 22.4971 15.5061 22.1831 15.8202C21.8691 16.1342 21.4432 16.3106 20.9991 16.3106C20.555 16.3106 20.1291 16.1342 19.8151 15.8202C19.5011 15.5061 19.3247 15.0802 19.3247 14.6362C19.3247 11.1913 22.3699 8.69751 25.7411 8.69751C29.1122 8.69751 32.1575 11.1913 32.1575 14.6362C32.1575 16.1543 31.6038 17.5698 30.617 18.6414C30.3044 18.983 29.9606 19.3223 29.6458 19.6349L29.4806 19.7956C29.1387 20.1277 28.8103 20.4732 28.4961 20.8315C28.3291 21.0243 28.1762 21.2287 28.0384 21.4433C29.3275 21.6832 30.5539 22.1847 31.6418 22.9168L48.2365 34.1019C50.3574 35.5308 50.9312 37.8906 50.1944 39.8798C49.4688 41.8356 47.5354 43.3024 45.0238 43.3024H7.97425C5.49163 43.3024 3.56716 41.8624 2.82594 39.9312C2.07133 37.9665 2.60269 35.6201 4.67451 34.1645L20.5146 23.0195C21.6968 22.1912 23.0506 21.6403 24.4752 21.4075C24.7096 20.2756 25.3526 19.358 25.9442 18.6615C26.3282 18.2105 26.748 17.7885 27.1253 17.4157L27.3039 17.2371C27.6231 16.9245 27.9 16.6499 28.1522 16.3753C28.5586 15.9333 28.8086 15.3305 28.8086 14.6339C28.8086 13.3681 27.6075 12.0464 25.7411 12.0464ZM29.7709 25.6918C28.6768 24.9669 27.3882 24.5917 26.0759 24.6157C24.7772 24.6236 23.5108 25.0219 22.4413 25.7588L6.60122 36.9016C5.82875 37.4441 5.72829 38.1474 5.95378 38.7301C6.1882 39.344 6.8535 39.9535 7.97425 39.9535H45.0238C46.1602 39.9535 46.8232 39.3351 47.0554 38.7144C47.272 38.125 47.1604 37.4151 46.3633 36.8793L29.7709 25.6918Z" fill="#302D30"/>
</svg>
