<svg width="48" height="48" viewBox="0 0 48 48" fill="none" xmlns="http://www.w3.org/2000/svg">
<path fill-rule="evenodd" clip-rule="evenodd" d="M11.248 8.84789C7.93 10.3639 5.5 13.9719 5.5 18.2739C5.5 22.6679 7.3 26.0559 9.876 28.9599C12.002 31.3519 14.574 33.3359 17.082 35.2679C17.6793 35.7279 18.2693 36.1866 18.852 36.6439C19.904 37.4739 20.842 38.1999 21.748 38.7299C22.654 39.2599 23.38 39.4999 24 39.4999C24.62 39.4999 25.348 39.2599 26.252 38.7299C27.158 38.1999 28.096 37.4739 29.148 36.6439C29.7307 36.1852 30.3207 35.7272 30.918 35.2699C33.426 33.3339 35.998 31.3519 38.124 28.9599C40.702 26.0559 42.5 22.6679 42.5 18.2739C42.5 13.9739 40.07 10.3639 36.752 8.84789C33.528 7.37389 29.196 7.76389 25.08 12.0419C24.9401 12.1871 24.7723 12.3025 24.5868 12.3814C24.4012 12.4603 24.2016 12.5009 24 12.5009C23.7984 12.5009 23.5988 12.4603 23.4132 12.3814C23.2277 12.3025 23.0599 12.1871 22.92 12.0419C18.804 7.76389 14.472 7.37389 11.248 8.84789ZM24 8.91989C19.376 4.77989 14.198 4.19989 10 6.11789C5.572 8.14789 2.5 12.8519 2.5 18.2759C2.5 23.6059 4.72 27.6739 7.634 30.9539C9.966 33.5799 12.82 35.7779 15.342 37.7179C15.9153 38.1579 16.466 38.5859 16.994 39.0019C18.02 39.8099 19.12 40.6699 20.234 41.3219C21.348 41.9739 22.62 42.5019 24 42.5019C25.38 42.5019 26.652 41.9719 27.766 41.3219C28.882 40.6699 29.98 39.8099 31.006 39.0019C31.534 38.5859 32.0847 38.1579 32.658 37.7179C35.178 35.7779 38.034 33.5779 40.366 30.9539C43.28 27.6739 45.5 23.6059 45.5 18.2759C45.5 12.8519 42.43 8.14789 38 6.12189C33.802 4.20189 28.624 4.78189 24 8.91989Z" fill="#302D30"/>
</svg>
