<svg width="44" height="32" viewBox="0 0 44 32" fill="none" xmlns="http://www.w3.org/2000/svg">
<path fill-rule="evenodd" clip-rule="evenodd" d="M21.32 3.5C19.648 3.5 18.572 4.684 18.572 5.82C18.572 6.21782 18.414 6.59936 18.1326 6.88066C17.8513 7.16196 17.4698 7.32 17.072 7.32C16.6742 7.32 16.2926 7.16196 16.0113 6.88066C15.73 6.59936 15.572 6.21782 15.572 5.82C15.572 2.734 18.3 0.5 21.32 0.5C24.34 0.5 27.068 2.734 27.068 5.82C27.068 7.18 26.572 8.448 25.688 9.408C25.408 9.714 25.1 10.018 24.818 10.298L24.67 10.442C24.3637 10.7394 24.0695 11.049 23.788 11.37C23.6385 11.5427 23.5014 11.7258 23.378 11.918C24.5328 12.1329 25.6314 12.5822 26.606 13.238L41.472 23.258C43.372 24.538 43.886 26.652 43.226 28.434C42.576 30.186 40.844 31.5 38.594 31.5H5.40399C3.17999 31.5 1.45599 30.21 0.791989 28.48C0.115989 26.72 0.591989 24.618 2.44799 23.314L16.638 13.33C17.6971 12.588 18.9098 12.0945 20.186 11.886C20.396 10.872 20.972 10.05 21.502 9.426C21.846 9.022 22.222 8.644 22.56 8.31L22.72 8.15C23.006 7.87 23.254 7.624 23.48 7.378C23.844 6.982 24.068 6.442 24.068 5.818C24.068 4.684 22.992 3.5 21.32 3.5ZM24.93 15.724C23.9499 15.0746 22.7955 14.7384 21.62 14.76C20.4565 14.767 19.322 15.1238 18.364 15.784L4.17399 25.766C3.48199 26.252 3.39199 26.882 3.59399 27.404C3.80399 27.954 4.39999 28.5 5.40399 28.5H38.594C39.612 28.5 40.206 27.946 40.414 27.39C40.608 26.862 40.508 26.226 39.794 25.746L24.93 15.724Z" fill="#302D30"/>
</svg>
